<?xml version="1.0" standalone="no"?>
<!DOCTYPE svg PUBLIC "-//W3C//DTD SVG 20010904//EN"
 "http://www.w3.org/TR/2001/REC-SVG-20010904/DTD/svg10.dtd">
<svg version="1.0" xmlns="http://www.w3.org/2000/svg"
 width="525.000000pt" height="640.000000pt" viewBox="0 0 525.000000 640.000000"
 preserveAspectRatio="xMidYMid meet">
<metadata>
Created by potrace 1.16, written by Peter Selinger 2001-2019
</metadata>
<g transform="translate(0.000000,640.000000) scale(0.100000,-0.100000)"
fill="#000000" stroke="none">
<path d="M3737 6366 c-82 -62 -120 -172 -97 -283 14 -66 76 -197 90 -188 5 3
12 0 16 -6 4 -8 3 -9 -4 -5 -7 4 -12 3 -12 -2 0 -21 163 -163 219 -192 33 -16
64 -30 68 -30 4 1 -22 17 -60 36 -40 20 -95 61 -135 100 l-67 67 69 -63 c112
-101 267 -162 370 -145 22 4 38 5 35 1 -3 -3 -30 -10 -60 -15 l-54 -10 48 3
c42 3 47 1 48 -18 1 -11 5 -70 9 -131 l8 -110 -3 135 c-1 93 1 120 6 85 4 -27
10 -147 13 -265 2 -118 7 -228 10 -245 l6 -30 -10 30 c-6 17 -15 86 -20 155
l-9 125 4 -125 c6 -179 39 -295 102 -350 l28 -25 -24 28 c-34 38 -21 34 15 -5
16 -17 23 -28 16 -24 -9 6 -11 1 -7 -16 3 -12 18 -78 34 -146 l28 -122 -43
-283 c-58 -371 -78 -560 -70 -631 5 -39 11 -54 19 -50 7 4 8 3 4 -2 -5 -5 -14
-9 -20 -9 -5 0 -12 -6 -15 -14 -3 -9 0 -11 9 -6 8 5 11 4 6 -1 -5 -5 -14 -9
-20 -9 -5 0 -12 -6 -15 -14 -3 -9 0 -11 8 -6 9 5 11 4 6 -4 -4 -6 -12 -9 -17
-5 -15 9 -59 -97 -59 -141 1 -22 8 -51 16 -65 9 -14 12 -16 7 -5 -13 32 -9
133 5 147 11 11 11 8 3 -15 -15 -39 -14 -93 3 -126 l15 -27 -47 -3 c-37 -2
-54 -9 -79 -33 -21 -21 -47 -34 -75 -39 l-43 -6 37 -2 c30 -1 46 6 77 34 33
30 45 35 89 35 28 0 53 -3 55 -7 3 -5 -19 -6 -49 -5 -51 4 -57 1 -94 -32 -38
-35 -42 -36 -112 -34 -55 2 -80 -2 -103 -16 -29 -17 -29 -17 -6 1 13 10 43 24
65 30 l41 13 -40 -6 c-39 -5 -105 -48 -113 -73 -3 -10 0 -11 9 -5 12 6 12 5 1
-8 -9 -12 -23 -15 -52 -11 -25 4 -55 -1 -82 -12 -37 -14 -50 -15 -100 -5 -55
12 -60 11 -112 -15 -43 -22 -62 -26 -92 -21 -39 7 -45 5 -165 -60 -24 -13 -30
-12 -73 12 -38 21 -63 27 -126 29 -43 2 -87 8 -98 14 -11 6 -45 15 -74 20 -42
7 -46 9 -18 9 19 1 53 -6 75 -14 22 -8 65 -16 95 -18 41 -3 49 -1 31 5 -13 5
-38 9 -55 8 -17 0 -49 6 -71 15 -22 8 -51 15 -66 16 -14 0 -31 6 -38 13 -11
10 -13 10 -7 0 10 -19 1 -16 -15 4 -10 11 -10 14 -1 9 18 -11 15 9 -5 25 -11
10 -14 10 -9 2 11 -19 1 -16 -15 4 -10 11 -10 14 -1 9 29 -17 8 15 -36 57 -76
70 -102 80 -199 75 l-83 -4 -6 33 c-6 34 28 136 82 245 27 53 29 62 12 52 -7
-4 -8 -3 -4 5 4 6 11 9 15 7 4 -3 18 8 30 24 28 38 58 53 157 78 171 43 244
95 244 173 0 22 -7 56 -15 76 -11 26 -14 53 -9 93 5 46 3 59 -12 76 -11 11
-14 13 -9 5 9 -12 7 -12 -11 -1 -20 13 -21 13 -3 31 12 12 19 33 19 54 0 40
-26 99 -40 90 -5 -3 -12 0 -16 6 -5 8 -3 9 6 4 8 -5 11 -3 8 6 -3 8 -10 14
-16 14 -5 0 -14 4 -19 9 -5 5 -3 6 5 2 7 -4 12 -1 12 9 0 10 -5 13 -12 9 -7
-5 -8 -3 -4 5 5 7 11 10 14 7 7 -7 32 13 32 26 0 5 -6 6 -12 2 -8 -4 -10 -3
-5 2 5 5 14 9 20 9 7 0 13 14 15 31 4 44 -51 89 -182 149 -101 47 -104 49
-124 97 -12 27 -25 47 -31 44 -5 -4 -13 -1 -17 5 -4 8 -3 9 4 5 7 -4 12 -3 12
3 0 5 -47 54 -106 108 -83 78 -111 110 -133 158 -15 33 -44 75 -65 93 -30 27
-45 32 -85 32 -26 0 -74 -9 -107 -20 -32 -12 -111 -30 -173 -41 -63 -10 -146
-28 -183 -40 -141 -42 -305 -123 -378 -189 -22 -20 -13 -15 27 13 135 97 326
171 529 206 65 11 146 29 178 41 33 11 81 20 107 20 41 0 54 -5 81 -31 l33
-31 -33 26 c-42 33 -104 35 -188 6 -32 -12 -113 -30 -178 -41 -215 -37 -422
-121 -548 -222 -35 -28 -57 -43 -49 -34 24 30 -4 18 -37 -16 -37 -38 -43 -60
-9 -31 20 17 20 16 -2 -9 -26 -29 -36 -35 -26 -14 4 6 -5 -1 -20 -17 -14 -16
-24 -35 -21 -43 3 -8 1 -11 -4 -8 -20 12 -87 -164 -77 -203 4 -13 5 -12 6 4 1
30 40 152 49 158 5 3 -3 -28 -16 -67 -50 -147 -42 -350 28 -699 43 -211 49
-255 19 -143 -11 44 -16 54 -11 25 4 -25 7 -62 6 -82 0 -32 2 -35 16 -25 8 6
2 -3 -14 -21 -34 -36 -49 -44 -20 -9 10 12 4 9 -14 -7 -33 -31 -45 -59 -14
-35 9 7 6 1 -7 -14 -27 -30 -41 -37 -20 -9 7 9 1 6 -14 -7 -27 -25 -37 -48
-14 -35 6 4 3 -2 -7 -14 -23 -26 -34 -29 -15 -4 11 14 10 13 -9 -2 -23 -20
-31 -42 -9 -30 6 4 3 -2 -7 -14 -23 -26 -34 -29 -15 -4 11 14 10 13 -9 -2 -23
-20 -31 -42 -9 -30 8 5 8 2 -2 -9 -16 -20 -26 -23 -15 -4 5 8 2 8 -9 -2 -20
-16 -23 -36 -4 -25 7 4 9 3 4 -2 -5 -5 -14 -9 -19 -9 -6 0 -13 -6 -16 -14 -3
-9 0 -11 9 -6 8 5 11 4 6 -1 -5 -5 -14 -9 -19 -9 -6 0 -13 -6 -16 -14 -3 -9 0
-11 8 -6 9 5 11 4 6 -4 -4 -6 -11 -9 -16 -6 -12 8 -33 -33 -24 -47 4 -7 3 -8
-4 -4 -18 11 -103 -176 -101 -223 0 -9 7 2 15 24 7 22 11 29 9 15 -28 -138
-24 -287 14 -457 9 -45 14 -80 10 -78 -7 5 -46 204 -52 270 l-4 40 -1 -45 c-1
-25 9 -99 22 -164 l25 -119 -38 -96 c-138 -346 -143 -508 -26 -801 21 -52 51
-121 66 -152 l29 -57 -11 -103 c-6 -56 -9 -154 -7 -218 4 -100 8 -122 32 -168
15 -29 31 -50 36 -47 5 3 12 0 16 -6 4 -8 3 -9 -4 -5 -7 4 -12 3 -12 -1 0 -9
55 -63 100 -98 l25 -20 -25 30 -25 30 26 -23 c25 -21 25 -26 17 -79 -5 -31
-13 -63 -19 -72 -9 -13 -9 -13 -4 4 3 10 8 40 11 65 3 39 2 36 -10 -17 -8 -34
-19 -70 -25 -82 -14 -26 -14 -34 2 -25 7 4 9 3 4 -2 -5 -5 -14 -9 -20 -9 -5 0
-12 -6 -15 -14 -3 -9 0 -11 9 -6 8 5 11 4 6 -1 -5 -5 -12 -9 -15 -9 -9 -1
-202 -199 -202 -207 0 -16 51 3 100 37 30 21 48 31 40 23 -8 -9 -40 -33 -70
-53 -30 -21 -48 -35 -39 -32 10 3 64 40 122 81 58 42 108 76 110 76 3 0 8 -12
10 -27 3 -22 4 -19 6 11 l1 38 -25 -16 c-34 -22 -32 -12 3 13 l28 19 2 -29 c3
-40 -17 -162 -28 -173 -6 -6 -6 5 0 25 6 18 10 45 9 59 -1 26 -30 -89 -33
-127 0 -11 -5 -19 -10 -15 -5 3 -7 -2 -3 -11 4 -10 2 -16 -5 -14 -6 1 -13 -4
-16 -12 -3 -10 0 -11 9 -5 12 7 12 5 0 -9 -16 -20 -25 -22 -16 -4 4 6 -10 -6
-29 -28 -42 -47 -48 -68 -8 -27 15 15 18 18 8 5 -32 -38 -10 -38 41 -1 26 20
55 33 63 30 8 -2 12 -1 8 3 -9 10 10 35 26 35 6 0 4 -5 -5 -10 -10 -6 -14 -19
-11 -44 3 -22 8 -33 15 -29 6 3 7 1 3 -6 -4 -6 -10 -9 -14 -7 -4 2 -27 -14
-52 -37 l-45 -40 40 27 40 27 -34 -30 c-19 -17 -38 -28 -43 -25 -9 6 -38 -13
-38 -26 0 -18 137 3 194 31 l41 20 -25 -21 c-20 -17 -21 -19 -4 -11 11 5 26
17 33 25 12 14 17 13 45 -6 l31 -22 -25 30 -25 29 26 -22 c32 -28 59 -32 38
-5 -13 15 -12 16 4 3 13 -10 15 -17 6 -27 -6 -8 -15 -12 -19 -9 -4 3 -15 -6
-24 -20 -21 -32 -20 -42 2 -18 9 10 14 14 10 9 -5 -6 -8 -14 -8 -18 0 -4 457
-8 1016 -8 l1016 0 -6 38 c-4 20 -18 88 -32 150 -14 63 -23 116 -21 118 2 3
10 -23 17 -56 7 -33 15 -58 18 -56 2 3 -8 55 -23 116 -15 61 -29 109 -32 106
-2 -2 1 -23 7 -46 6 -23 9 -44 7 -46 -2 -3 -12 24 -21 58 -25 99 -28 117 -12
78 21 -51 19 -25 -4 50 -16 53 -18 70 -8 96 12 33 11 37 -37 151 -14 34 -32
90 -40 125 -14 59 -14 60 -9 13 10 -82 -4 -47 -22 59 -18 107 -16 288 4 308 7
7 8 -1 1 -28 -4 -22 -8 -79 -7 -129 l1 -90 7 110 c7 122 12 140 81 306 27 65
49 125 48 135 0 11 -7 -3 -15 -30 -9 -26 -17 -46 -19 -44 -2 2 3 26 11 53 18
56 23 260 13 505 -4 80 -3 120 1 90 l7 -55 1 52 2 52 53 15 c28 8 89 25 135
37 45 12 80 24 78 26 -2 3 -62 -12 -134 -31 -71 -20 -135 -36 -143 -35 -8 0
18 9 56 20 654 183 840 242 1158 368 122 49 234 91 248 94 14 4 42 18 63 32
21 14 35 21 31 15 -12 -19 12 -10 33 13 26 28 29 45 5 26 -15 -11 -14 -10 1 9
21 24 31 29 21 10 -4 -7 3 -2 14 11 23 25 28 47 9 35 -7 -4 -8 -3 -4 5 4 6 12
9 17 5 23 -14 96 193 188 538 33 123 94 331 135 463 42 132 76 244 76 248 0 5
-4 5 -10 2 -6 -4 -6 3 0 21 24 61 11 91 -75 178 -45 46 -108 101 -141 123 -58
39 -184 108 -194 106 -8 -2 8 446 19 527 6 41 10 100 9 130 0 38 -3 25 -10
-45 -4 -55 -13 -127 -18 -160 l-9 -60 4 63 c3 34 10 126 16 204 6 78 9 160 6
181 -3 21 -2 36 1 32 4 -4 10 -41 13 -83 l7 -77 -2 81 c-1 65 -5 86 -20 103
-11 12 -24 21 -29 21 -6 0 -2 -7 9 -16 18 -15 18 -15 -3 -4 -12 5 -25 15 -29
22 -4 7 -3 8 4 4 7 -4 12 -3 12 2 0 12 -25 33 -32 27 -2 -3 -18 10 -34 28 -28
31 -28 31 -1 8 15 -14 27 -20 27 -15 0 6 -14 21 -31 33 -18 13 -29 19 -25 12
8 -13 -1 -13 -29 -1 l-20 9 20 0 c12 1 16 4 9 9 -6 4 -16 23 -23 43 -6 20 -24
47 -39 61 -30 28 -71 52 -78 45 -3 -2 9 -10 25 -17 16 -6 38 -21 48 -32 14
-16 10 -15 -22 5 -44 29 -87 62 -67 52 24 -12 11 12 -27 49 -34 33 -44 37 -77
34 -22 -1 -45 -10 -52 -18 -10 -12 -10 -10 0 13 7 17 14 23 18 16 4 -6 10 -1
13 13 10 34 6 57 -4 28 -6 -19 -7 -15 -3 16 7 55 -10 144 -40 210 -14 30 -23
54 -20 54 13 0 57 -117 69 -182 7 -40 13 -63 14 -52 3 69 -66 263 -89 249 -6
-3 -7 0 -4 10 9 23 -147 174 -221 212 -58 30 -63 31 -198 31 l-138 0 -42 -32z
m248 -95 c44 -22 93 -58 139 -103 39 -38 65 -67 59 -63 -7 3 -13 2 -13 -3 0
-13 25 -33 32 -26 3 3 9 0 14 -7 5 -8 3 -10 -6 -4 -7 4 -11 4 -8 -1 2 -5 17
-36 33 -69 40 -82 46 -165 15 -207 l-22 -30 24 12 c22 11 22 10 3 -5 -32 -25
-83 -35 -136 -25 -54 11 -132 47 -169 80 l-25 22 30 -20 c45 -29 112 -62 127
-62 7 0 -12 12 -42 26 -30 14 -69 36 -87 50 -33 25 -48 31 -38 14 13 -21 -2
-8 -50 41 -28 29 -44 49 -37 45 6 -4 12 -3 12 3 0 10 -19 26 -32 26 -3 0 -10
4 -15 9 -5 5 -2 6 6 1 9 -5 12 -3 9 6 -3 8 -10 14 -15 14 -6 0 -15 4 -20 9 -5
5 -3 6 5 2 16 -10 15 -1 -5 37 -9 18 -22 50 -30 72 -9 28 -12 32 -9 12 2 -17
0 -25 -5 -20 -15 15 -16 118 -1 116 6 -2 12 1 12 6 0 5 3 17 7 27 5 13 3 15
-8 9 -12 -7 -11 -6 1 9 39 48 144 47 245 -3z m-2636 -5936 c6 -30 16 -80 22
-111 10 -53 10 -58 -11 -78 -13 -11 -19 -14 -14 -6 7 13 5 13 -9 1 -20 -16
-23 -36 -4 -25 7 5 6 1 -2 -10 -14 -16 -16 -16 -26 -2 -7 9 -14 13 -17 10 -4
-3 -9 0 -14 7 -4 7 -3 10 3 6 7 -4 9 17 5 62 -4 54 0 77 17 116 24 55 25 59 9
49 -7 -4 -8 -3 -4 5 4 6 12 8 18 5 7 -5 9 -1 5 9 -3 10 -2 17 3 17 5 0 13 -25
19 -55z"/>
</g>
</svg>
